<svg viewBox="0 0 400 800" xmlns="http://www.w3.org/2000/svg">
  <!-- Phone Frame -->
  <rect x="0" y="0" width="400" height="800" rx="40" ry="40" fill="#1a1a1a"/>
  <rect x="10" y="10" width="380" height="780" rx="35" ry="35" fill="#000"/>
  
  <!-- Screen -->
  <rect x="20" y="60" width="360" height="680" rx="25" ry="25" fill="#f8fafc"/>
  
  <!-- Status Bar -->
  <rect x="20" y="60" width="360" height="40" rx="25" ry="25" fill="#3b82f6"/>
  <text x="40" y="85" fill="white" font-family="Arial, sans-serif" font-size="14" font-weight="bold">9:41</text>
  <circle cx="350" cy="80" r="6" fill="white"/>
  <rect x="325" y="76" width="15" height="8" rx="2" fill="white"/>
  
  <!-- Header -->
  <rect x="20" y="100" width="360" height="60" fill="white"/>
  <text x="40" y="130" fill="#1e293b" font-family="Arial, sans-serif" font-size="18" font-weight="bold">学生综合素养评价</text>
  <circle cx="340" cy="130" r="15" fill="#e2e8f0"/>
  <text x="334" y="135" fill="#64748b" font-family="Arial, sans-serif" font-size="12">头像</text>
  
  <!-- Student Info Card -->
  <rect x="40" y="180" width="320" height="80" rx="12" fill="white" stroke="#e2e8f0" stroke-width="1"/>
  <circle cx="80" cy="220" r="25" fill="#ddd6fe"/>
  <text x="74" y="226" fill="#7c3aed" font-family="Arial, sans-serif" font-size="14" font-weight="bold">张明</text>
  <text x="120" y="210" fill="#1e293b" font-family="Arial, sans-serif" font-size="16" font-weight="bold">张明同学</text>
  <text x="120" y="230" fill="#64748b" font-family="Arial, sans-serif" font-size="14">三年级2班 · 学号: 2021030201</text>
  <text x="120" y="245" fill="#64748b" font-family="Arial, sans-serif" font-size="12">本周评价: 德智体美劳全面发展</text>
  
  <!-- Evaluation Categories -->
  <text x="40" y="300" fill="#1e293b" font-family="Arial, sans-serif" font-size="16" font-weight="bold">五育评价</text>
  
  <!-- 德育 -->
  <rect x="40" y="320" width="320" height="60" rx="8" fill="white" stroke="#e2e8f0" stroke-width="1"/>
  <circle cx="70" cy="350" r="15" fill="#ef4444"/>
  <text x="64" y="355" fill="white" font-family="Arial, sans-serif" font-size="12" font-weight="bold">德</text>
  <text x="100" y="345" fill="#1e293b" font-family="Arial, sans-serif" font-size="14" font-weight="bold">思想品德</text>
  <text x="100" y="360" fill="#64748b" font-family="Arial, sans-serif" font-size="12">诚实守信 · 乐于助人</text>
  <rect x="280" y="335" width="60" height="20" rx="10" fill="#fef3c7"/>
  <text x="300" y="348" fill="#d97706" font-family="Arial, sans-serif" font-size="12" font-weight="bold">优秀</text>
  
  <!-- 智育 -->
  <rect x="40" y="390" width="320" height="60" rx="8" fill="white" stroke="#e2e8f0" stroke-width="1"/>
  <circle cx="70" cy="420" r="15" fill="#3b82f6"/>
  <text x="64" y="425" fill="white" font-family="Arial, sans-serif" font-size="12" font-weight="bold">智</text>
  <text x="100" y="415" fill="#1e293b" font-family="Arial, sans-serif" font-size="14" font-weight="bold">学习能力</text>
  <text x="100" y="430" fill="#64748b" font-family="Arial, sans-serif" font-size="12">数学92分 · 语文89分</text>
  <rect x="280" y="405" width="60" height="20" rx="10" fill="#dcfce7"/>
  <text x="300" y="418" fill="#16a34a" font-family="Arial, sans-serif" font-size="12" font-weight="bold">良好</text>
  
  <!-- 体育 -->
  <rect x="40" y="460" width="320" height="60" rx="8" fill="white" stroke="#e2e8f0" stroke-width="1"/>
  <circle cx="70" cy="490" r="15" fill="#10b981"/>
  <text x="64" y="495" fill="white" font-family="Arial, sans-serif" font-size="12" font-weight="bold">体</text>
  <text x="100" y="485" fill="#1e293b" font-family="Arial, sans-serif" font-size="14" font-weight="bold">身体素质</text>
  <text x="100" y="500" fill="#64748b" font-family="Arial, sans-serif" font-size="12">跑步达标 · 身高体重正常</text>
  <rect x="280" y="475" width="60" height="20" rx="10" fill="#fef3c7"/>
  <text x="300" y="488" fill="#d97706" font-family="Arial, sans-serif" font-size="12" font-weight="bold">优秀</text>
  
  <!-- 美育 -->
  <rect x="40" y="530" width="320" height="60" rx="8" fill="white" stroke="#e2e8f0" stroke-width="1"/>
  <circle cx="70" cy="560" r="15" fill="#8b5cf6"/>
  <text x="64" y="565" fill="white" font-family="Arial, sans-serif" font-size="12" font-weight="bold">美</text>
  <text x="100" y="555" fill="#1e293b" font-family="Arial, sans-serif" font-size="14" font-weight="bold">艺术修养</text>
  <text x="100" y="570" fill="#64748b" font-family="Arial, sans-serif" font-size="12">绘画作品获奖 · 音乐节拍准确</text>
  <rect x="280" y="545" width="60" height="20" rx="10" fill="#dcfce7"/>
  <text x="300" y="558" fill="#16a34a" font-family="Arial, sans-serif" font-size="12" font-weight="bold">良好</text>
  
  <!-- 劳育 -->
  <rect x="40" y="600" width="320" height="60" rx="8" fill="white" stroke="#e2e8f0" stroke-width="1"/>
  <circle cx="70" cy="630" r="15" fill="#f59e0b"/>
  <text x="64" y="635" fill="white" font-family="Arial, sans-serif" font-size="12" font-weight="bold">劳</text>
  <text x="100" y="625" fill="#1e293b" font-family="Arial, sans-serif" font-size="14" font-weight="bold">劳动实践</text>
  <text x="100" y="640" fill="#64748b" font-family="Arial, sans-serif" font-size="12">值日认真 · 手工制作精美</text>
  <rect x="280" y="615" width="60" height="20" rx="10" fill="#fef3c7"/>
  <text x="300" y="628" fill="#d97706" font-family="Arial, sans-serif" font-size="12" font-weight="bold">优秀</text>
  
  <!-- Bottom Navigation -->
  <rect x="20" y="700" width="360" height="40" fill="white" stroke="#e2e8f0" stroke-width="1"/>
  <circle cx="80" cy="720" r="8" fill="#3b82f6"/>
  <text x="100" y="725" fill="#3b82f6" font-family="Arial, sans-serif" font-size="12" font-weight="bold">评价</text>
  <circle cx="200" cy="720" r="6" fill="#9ca3af"/>
  <text x="215" y="725" fill="#9ca3af" font-family="Arial, sans-serif" font-size="12">成长</text>
  <circle cx="300" cy="720" r="6" fill="#9ca3af"/>
  <text x="315" y="725" fill="#9ca3af" font-family="Arial, sans-serif" font-size="12">我的</text>
</svg>