<svg viewBox="0 0 800 1200" xmlns="http://www.w3.org/2000/svg">
  <!-- Multiple Phone Frames -->
  
  <!-- Phone 1 - Main Interface -->
  <g id="phone1" transform="translate(50, 50)">
    <!-- Phone Frame -->
    <rect x="0" y="0" width="300" height="550" rx="25" ry="25" fill="#1a1a1a"/>
    <rect x="8" y="8" width="284" height="534" rx="20" ry="20" fill="#000"/>
    
    <!-- Screen -->
    <rect x="15" y="40" width="270" height="480" rx="18" ry="18" fill="#f8f9fa"/>
    
    <!-- Status Bar -->
    <rect x="15" y="40" width="270" height="35" rx="18" ry="18" fill="#fff"/>
    <text x="30" y="62" fill="#000" font-family="PingFang SC, sans-serif" font-size="12" font-weight="600">9:41</text>
    <circle cx="260" cy="57" r="4" fill="#34d399"/>
    <rect x="245" y="54" width="12" height="6" rx="1" fill="#000" opacity="0.8"/>
    
    <!-- Header -->
    <rect x="15" y="75" width="270" height="50" fill="#fff" stroke="#f1f5f9" stroke-width="1"/>
    <text x="30" y="95" fill="#1f2937" font-family="PingFang SC, sans-serif" font-size="14" font-weight="bold">学生详情</text>
    <text x="30" y="110" fill="#6b7280" font-family="PingFang SC, sans-serif" font-size="11">周小熊 2024级 1班</text>
    <rect x="240" y="85" width="30" height="20" rx="4" fill="#f3f4f6"/>
    <text x="250" y="97" fill="#6b7280" font-family="PingFang SC, sans-serif" font-size="10">头像</text>
    
    <!-- Tab Navigation -->
    <rect x="15" y="125" width="270" height="40" fill="#fff" stroke="#f1f5f9" stroke-width="1"/>
    <rect x="30" y="135" width="50" height="20" rx="10" fill="#ff6b6b"/>
    <text x="45" y="147" fill="white" font-family="PingFang SC, sans-serif" font-size="10" font-weight="bold">评价记录</text>
    <text x="120" y="147" fill="#9ca3af" font-family="PingFang SC, sans-serif" font-size="10">成长报告</text>
    
    <!-- Five Dimensions Scores -->
    <rect x="25" y="175" width="250" height="80" fill="#fff" stroke="#e5e7eb" stroke-width="1" rx="8"/>
    
    <!-- Score Cards -->
    <rect x="35" y="185" width="45" height="25" rx="4" fill="#ff6b6b" opacity="0.1"/>
    <text x="45" y="195" fill="#ff6b6b" font-family="PingFang SC, sans-serif" font-size="8">美育</text>
    <text x="45" y="205" fill="#ff6b6b" font-family="PingFang SC, sans-serif" font-size="12" font-weight="bold">124</text>
    <text x="45" y="215" fill="#ff6b6b" font-family="PingFang SC, sans-serif" font-size="6">很棒继续</text>
    
    <rect x="90" y="185" width="45" height="25" rx="4" fill="#f59e0b" opacity="0.1"/>
    <text x="100" y="195" fill="#f59e0b" font-family="PingFang SC, sans-serif" font-size="8">德育</text>
    <text x="100" y="205" fill="#f59e0b" font-family="PingFang SC, sans-serif" font-size="12" font-weight="bold">124</text>
    <text x="100" y="215" fill="#f59e0b" font-family="PingFang SC, sans-serif" font-size="6">很棒继续</text>
    
    <rect x="145" y="185" width="45" height="25" rx="4" fill="#3b82f6" opacity="0.1"/>
    <text x="155" y="195" fill="#3b82f6" font-family="PingFang SC, sans-serif" font-size="8">劳育</text>
    <text x="155" y="205" fill="#3b82f6" font-family="PingFang SC, sans-serif" font-size="12" font-weight="bold">124</text>
    <text x="155" y="215" fill="#3b82f6" font-family="PingFang SC, sans-serif" font-size="6">很棒继续</text>
    
    <rect x="35" y="225" width="45" height="25" rx="4" fill="#10b981" opacity="0.1"/>
    <text x="45" y="235" fill="#10b981" font-family="PingFang SC, sans-serif" font-size="8">智育</text>
    <text x="45" y="245" fill="#10b981" font-family="PingFang SC, sans-serif" font-size="12" font-weight="bold">124</text>
    <text x="45" y="255" fill="#10b981" font-family="PingFang SC, sans-serif" font-size="6">很棒继续</text>
    
    <rect x="90" y="225" width="45" height="25" rx="4" fill="#8b5cf6" opacity="0.1"/>
    <text x="100" y="235" fill="#8b5cf6" font-family="PingFang SC, sans-serif" font-size="8">体育</text>
    <text x="100" y="245" fill="#8b5cf6" font-family="PingFang SC, sans-serif" font-size="12" font-weight="bold">124</text>
    <text x="100" y="255" fill="#8b5cf6" font-family="PingFang SC, sans-serif" font-size="6">很棒继续</text>
    
    <!-- Teacher Comment -->
    <rect x="25" y="275" width="250" height="60" fill="#fff" stroke="#e5e7eb" stroke-width="1" rx="8"/>
    <text x="35" y="290" fill="#4b5563" font-family="PingFang SC, sans-serif" font-size="9">班主任记录：</text>
    <text x="35" y="305" fill="#1f2937" font-family="PingFang SC, sans-serif" font-size="10">周小花作天参与大扫除；周小花作天参与大扫除；</text>
    <text x="35" y="318" fill="#1f2937" font-family="PingFang SC, sans-serif" font-size="10">周小花作天参与大扫除；周小花作天参与大扫除；</text>
    <text x="35" y="330" fill="#9ca3af" font-family="PingFang SC, sans-serif" font-size="8">2025-09-11 13:59</text>
    
    <!-- AI Analysis -->
    <rect x="25" y="350" width="250" height="80" fill="#f0f9ff" stroke="#0ea5e9" stroke-width="1" rx="8"/>
    <circle cx="45" cy="370" r="12" fill="#0ea5e9"/>
    <text x="40" y="375" fill="white" font-family="PingFang SC, sans-serif" font-size="8">AI</text>
    <text x="65" y="368" fill="#0369a1" font-family="PingFang SC, sans-serif" font-size="9">今天在参与大扫除，积极助助打扫卫生，</text>
    <text x="65" y="380" fill="#0369a1" font-family="PingFang SC, sans-serif" font-size="9">值得表扬！</text>
    <text x="65" y="400" fill="#0ea5e9" font-family="PingFang SC, sans-serif" font-size="8">AI分析新玩</text>
    <text x="65" y="415" fill="#9ca3af" font-family="PingFang SC, sans-serif" font-size="8">2025-09-11 13:59</text>
    
    <!-- Voice Recording Button -->
    <rect x="25" y="450" width="250" height="40" rx="20" fill="#f59e0b"/>
    <circle cx="60" cy="470" r="8" fill="white"/>
    <text x="80" y="475" fill="white" font-family="PingFang SC, sans-serif" font-size="12" font-weight="bold">按住语音记录</text>
  </g>
  
  <!-- Phone 2 - Growth Report -->
  <g id="phone2" transform="translate(400, 50)">
    <!-- Phone Frame -->
    <rect x="0" y="0" width="300" height="550" rx="25" ry="25" fill="#1a1a1a"/>
    <rect x="8" y="8" width="284" height="534" rx="20" ry="20" fill="#000"/>
    
    <!-- Screen -->
    <rect x="15" y="40" width="270" height="480" rx="18" ry="18" fill="#f8f9fa"/>
    
    <!-- Header -->
    <rect x="15" y="40" width="270" height="50" fill="#fff"/>
    <text x="30" y="60" fill="#1f2937" font-family="PingFang SC, sans-serif" font-size="14" font-weight="bold">学生详情</text>
    <text x="30" y="75" fill="#6b7280" font-family="PingFang SC, sans-serif" font-size="11">周小熊 2024级 1班</text>
    
    <!-- Tab Navigation -->
    <rect x="15" y="90" width="270" height="40" fill="#fff"/>
    <text x="60" y="108" fill="#9ca3af" font-family="PingFang SC, sans-serif" font-size="10">评价记录</text>
    <rect x="150" y="100" width="50" height="20" rx="10" fill="#f59e0b"/>
    <text x="165" y="112" fill="white" font-family="PingFang SC, sans-serif" font-size="10" font-weight="bold">成长报告</text>
    
    <!-- Radar Chart Background -->
    <rect x="30" y="140" width="240" height="200" fill="#fff" stroke="#e5e7eb" stroke-width="1" rx="12"/>
    
    <!-- Simplified Radar Chart -->
    <g transform="translate(150, 220)">
      <!-- Pentagon Background -->
      <polygon points="0,-50 47.5,-15.5 29.4,40.5 -29.4,40.5 -47.5,-15.5" 
               fill="#f3f4f6" stroke="#d1d5db" stroke-width="1"/>
      <polygon points="0,-35 33.25,-10.85 20.58,28.35 -20.58,28.35 -33.25,-10.85" 
               fill="#f9fafb" stroke="#e5e7eb" stroke-width="1"/>
      <polygon points="0,-20 19,-6.2 11.8,16.2 -11.8,16.2 -19,-6.2" 
               fill="none" stroke="#f3f4f6" stroke-width="1"/>
      
      <!-- Data Polygon -->
      <polygon points="0,-40 38,-12.4 23.5,30.2 -23.5,30.2 -38,-12.4" 
               fill="#22c55e" opacity="0.3" stroke="#22c55e" stroke-width="2"/>
      
      <!-- Data Points -->
      <circle cx="0" cy="-40" r="3" fill="#22c55e"/>
      <circle cx="38" cy="-12.4" r="3" fill="#22c55e"/>
      <circle cx="23.5" cy="30.2" r="3" fill="#22c55e"/>
      <circle cx="-23.5" cy="30.2" r="3" fill="#22c55e"/>
      <circle cx="-38" cy="-12.4" r="3" fill="#22c55e"/>
      
      <!-- Labels -->
      <text x="0" y="-65" text-anchor="middle" fill="#f59e0b" font-family="PingFang SC, sans-serif" font-size="10">德育</text>
      <text x="0" y="-55" text-anchor="middle" fill="#f59e0b" font-family="PingFang SC, sans-serif" font-size="8">培养品格</text>
      
      <text x="55" y="-12" text-anchor="middle" fill="#10b981" font-family="PingFang SC, sans-serif" font-size="10">智育</text>
      <text x="55" y="-2" text-anchor="middle" fill="#10b981" font-family="PingFang SC, sans-serif" font-size="8">培养能力</text>
      
      <text x="35" y="50" text-anchor="middle" fill="#3b82f6" font-family="PingFang SC, sans-serif" font-size="10">劳育</text>
      
      <text x="-35" y="50" text-anchor="middle" fill="#8b5cf6" font-family="PingFang SC, sans-serif" font-size="10">体育</text>
      
      <text x="-55" y="-12" text-anchor="middle" fill="#ff6b6b" font-family="PingFang SC, sans-serif" font-size="10">美育</text>
      <text x="-55" y="-2" text-anchor="middle" fill="#ff6b6b" font-family="PingFang SC, sans-serif" font-size="8">培养审美</text>
    </g>
    
    <!-- Student Character -->
    <g transform="translate(150, 380)">
      <!-- Graduation Cap -->
      <ellipse cx="0" cy="-25" rx="20" ry="4" fill="#1f2937"/>
      <rect x="-15" y="-29" width="30" height="4" rx="2" fill="#1f2937"/>
      <circle cx="15" cy="-27" r="2" fill="#f59e0b"/>
      
      <!-- Head -->
      <circle cx="0" cy="-10" r="15" fill="#fbbf24"/>
      
      <!-- Glasses -->
      <circle cx="-6" cy="-12" r="5" fill="none" stroke="#1f2937" stroke-width="2"/>
      <circle cx="6" cy="-12" r="5" fill="none" stroke="#1f2937" stroke-width="2"/>
      <line x1="1" y1="-12" x2="-1" y2="-12" stroke="#1f2937" stroke-width="2"/>
      
      <!-- Body -->
      <rect x="-10" y="5" width="20" height="25" rx="10" fill="#f59e0b"/>
      
      <!-- Arms -->
      <circle cx="-12" cy="12" r="4" fill="#fbbf24"/>
      <circle cx="12" cy="12" r="4" fill="#fbbf24"/>
      
      <!-- Legs -->
      <rect x="-6" y="30" width="5" height="15" rx="2" fill="#1f2937"/>
      <rect x="1" y="30" width="5" height="15" rx="2" fill="#1f2937"/>
    </g>
    
    <!-- Action Buttons -->
    <rect x="30" y="400" width="60" height="25" rx="12" fill="#ef4444"/>
    <text x="50" y="415" text-anchor="middle" fill="white" font-family="PingFang SC, sans-serif" font-size="10">团队成员</text>
    
    <rect x="110" y="400" width="60" height="25" rx="12" fill="#22c55e"/>
    <text x="140" y="415" text-anchor="middle" fill="white" font-family="PingFang SC, sans-serif" font-size="10">学习优秀</text>
    
    <!-- Bottom Report -->
    <rect x="30" y="450" width="240" height="50" fill="#fff" stroke="#e5e7eb" stroke-width="1" rx="8"/>
    <text x="40" y="468" fill="#1f2937" font-family="PingFang SC, sans-serif" font-size="12" font-weight="bold">2025年9月成长报告</text>
    <text x="40" y="485" fill="#6b7280" font-family="PingFang SC, sans-serif" font-size="9">完整学情长报告</text>
  </g>
  
  <!-- Title and Descriptions -->
  <text x="400" y="650" text-anchor="middle" fill="#1f2937" font-family="PingFang SC, sans-serif" font-size="24" font-weight="bold">综合素养评价系统</text>
  <text x="400" y="680" text-anchor="middle" fill="#6b7280" font-family="PingFang SC, sans-serif" font-size="16">五育并举 · 科学评价 · AI智能分析</text>
</svg>