<svg viewBox="0 0 1200 800" xmlns="http://www.w3.org/2000/svg">
  <!-- Browser Frame -->
  <rect x="0" y="0" width="1200" height="800" rx="10" ry="10" fill="#f1f5f9"/>
  <rect x="10" y="10" width="1180" height="780" rx="8" ry="8" fill="white" stroke="#e2e8f0" stroke-width="1"/>
  
  <!-- Browser Header -->
  <rect x="10" y="10" width="1180" height="50" rx="8" ry="8" fill="#f8fafc" stroke="#e2e8f0" stroke-width="1"/>
  <circle cx="35" cy="35" r="8" fill="#ef4444"/>
  <circle cx="55" cy="35" r="8" fill="#f59e0b"/>
  <circle cx="75" cy="35" r="8" fill="#10b981"/>
  <rect x="400" y="25" width="400" height="20" rx="10" fill="#e2e8f0"/>
  <text x="420" y="37" fill="#64748b" font-family="Arial, sans-serif" font-size="12">https://smartedu.letoai.tech</text>
  
  <!-- Top Navigation -->
  <rect x="10" y="60" width="1180" height="60" fill="white" stroke="#e2e8f0" stroke-width="1"/>
  <text x="50" y="85" fill="#3b82f6" font-family="Arial, sans-serif" font-size="20" font-weight="bold">智能题库平台</text>
  <text x="50" y="105" fill="#64748b" font-family="Arial, sans-serif" font-size="12">AI驱动的个性化学习系统</text>
  
  <!-- User Info -->
  <circle cx="1100" cy="90" r="20" fill="#ddd6fe"/>
  <text x="1090" y="96" fill="#7c3aed" font-family="Arial, sans-serif" font-size="12" font-weight="bold">李老师</text>
  
  <!-- Sidebar -->
  <rect x="10" y="120" width="250" height="670" fill="#f8fafc" stroke="#e2e8f0" stroke-width="1"/>
  
  <!-- Sidebar Menu -->
  <rect x="20" y="140" width="230" height="40" rx="6" fill="#3b82f6"/>
  <text x="35" y="165" fill="white" font-family="Arial, sans-serif" font-size="14" font-weight="bold">📊 智能推荐</text>
  
  <rect x="20" y="190" width="230" height="40" rx="6" fill="white"/>
  <text x="35" y="215" fill="#64748b" font-family="Arial, sans-serif" font-size="14">📚 题库管理</text>
  
  <rect x="20" y="240" width="230" height="40" rx="6" fill="white"/>
  <text x="35" y="265" fill="#64748b" font-family="Arial, sans-serif" font-size="14">👥 学生管理</text>
  
  <rect x="20" y="290" width="230" height="40" rx="6" fill="white"/>
  <text x="35" y="315" fill="#64748b" font-family="Arial, sans-serif" font-size="14">📈 学习分析</text>
  
  <rect x="20" y="340" width="230" height="40" rx="6" fill="white"/>
  <text x="35" y="365" fill="#64748b" font-family="Arial, sans-serif" font-size="14">⚙️ 系统设置</text>
  
  <!-- Main Content Area -->
  <rect x="270" y="120" width="920" height="670" fill="white"/>
  
  <!-- Content Header -->
  <text x="300" y="155" fill="#1e293b" font-family="Arial, sans-serif" font-size="24" font-weight="bold">AI智能题目推荐</text>
  <text x="300" y="175" fill="#64748b" font-family="Arial, sans-serif" font-size="14">基于学生学习情况，智能推荐最适合的练习题目</text>
  
  <!-- Filter Bar -->
  <rect x="300" y="200" width="860" height="50" rx="8" fill="#f8fafc" stroke="#e2e8f0" stroke-width="1"/>
  <rect x="320" y="215" width="100" height="20" rx="4" fill="#3b82f6"/>
  <text x="350" y="227" fill="white" font-family="Arial, sans-serif" font-size="12">数学</text>
  <rect x="440" y="215" width="80" height="20" rx="4" fill="#e2e8f0"/>
  <text x="470" y="227" fill="#64748b" font-family="Arial, sans-serif" font-size="12">语文</text>
  <rect x="540" y="215" width="80" height="20" rx="4" fill="#e2e8f0"/>
  <text x="570" y="227" fill="#64748b" font-family="Arial, sans-serif" font-size="12">英语</text>
  
  <!-- Student Progress Cards -->
  <rect x="300" y="270" width="400" height="120" rx="8" fill="white" stroke="#e2e8f0" stroke-width="1"/>
  <text x="320" y="295" fill="#1e293b" font-family="Arial, sans-serif" font-size="16" font-weight="bold">张明 - 三年级</text>
  <text x="320" y="315" fill="#64748b" font-family="Arial, sans-serif" font-size="12">知识点掌握情况分析</text>
  
  <!-- Progress Bars -->
  <text x="320" y="340" fill="#64748b" font-family="Arial, sans-serif" font-size="12">加法运算</text>
  <rect x="380" y="332" width="200" height="8" rx="4" fill="#e2e8f0"/>
  <rect x="380" y="332" width="160" height="8" rx="4" fill="#10b981"/>
  <text x="590" y="340" fill="#10b981" font-family="Arial, sans-serif" font-size="12">80%</text>
  
  <text x="320" y="365" fill="#64748b" font-family="Arial, sans-serif" font-size="12">减法运算</text>
  <rect x="380" y="357" width="200" height="8" rx="4" fill="#e2e8f0"/>
  <rect x="380" y="357" width="100" height="8" rx="4" fill="#f59e0b"/>
  <text x="590" y="365" fill="#f59e0b" font-family="Arial, sans-serif" font-size="12">50%</text>
  
  <!-- Recommended Questions -->
  <rect x="720" y="270" width="440" height="120" rx="8" fill="#fef3c7" stroke="#f59e0b" stroke-width="1"/>
  <text x="740" y="295" fill="#92400e" font-family="Arial, sans-serif" font-size="16" font-weight="bold">🎯 AI推荐题目</text>
  <text x="740" y="315" fill="#92400e" font-family="Arial, sans-serif" font-size="12">针对减法运算薄弱点推荐</text>
  <text x="740" y="340" fill="#1e293b" font-family="Arial, sans-serif" font-size="14">题目：小明有15个苹果，吃掉了8个，还剩多少个？</text>
  <text x="740" y="360" fill="#1e293b" font-family="Arial, sans-serif" font-size="14">难度：⭐⭐⭐ 预计用时：3分钟</text>
  
  <!-- Question Bank -->
  <text x="300" y="430" fill="#1e293b" font-family="Arial, sans-serif" font-size="18" font-weight="bold">题库内容</text>
  
  <!-- Question Items -->
  <rect x="300" y="450" width="860" height="80" rx="8" fill="white" stroke="#e2e8f0" stroke-width="1"/>
  <circle cx="330" cy="490" r="15" fill="#3b82f6"/>
  <text x="325" y="495" fill="white" font-family="Arial, sans-serif" font-size="12" font-weight="bold">1</text>
  <text x="360" y="475" fill="#1e293b" font-family="Arial, sans-serif" font-size="14" font-weight="bold">三位数加法练习</text>
  <text x="360" y="495" fill="#64748b" font-family="Arial, sans-serif" font-size="12">题目类型：计算题 | 难度：中等 | 适合年级：三年级</text>
  <text x="360" y="510" fill="#64748b" font-family="Arial, sans-serif" font-size="12">标签：加法运算、进位、三位数</text>
  
  <!-- AI Analysis Panel -->
  <rect x="950" y="460" width="200" height="60" rx="6" fill="#f0f9ff" stroke="#0ea5e9" stroke-width="1"/>
  <text x="970" y="480" fill="#0ea5e9" font-family="Arial, sans-serif" font-size="12" font-weight="bold">AI分析建议</text>
  <text x="970" y="495" fill="#0369a1" font-family="Arial, sans-serif" font-size="10">该学生在进位计算方面</text>
  <text x="970" y="505" fill="#0369a1" font-family="Arial, sans-serif" font-size="10">需要加强练习</text>
  
  <rect x="300" y="540" width="860" height="80" rx="8" fill="white" stroke="#e2e8f0" stroke-width="1"/>
  <circle cx="330" cy="580" r="15" fill="#10b981"/>
  <text x="325" y="585" fill="white" font-family="Arial, sans-serif" font-size="12" font-weight="bold">2</text>
  <text x="360" y="565" fill="#1e293b" font-family="Arial, sans-serif" font-size="14" font-weight="bold">几何图形识别</text>
  <text x="360" y="585" fill="#64748b" font-family="Arial, sans-serif" font-size="12">题目类型：选择题 | 难度：简单 | 适合年级：二-三年级</text>
  <text x="360" y="600" fill="#64748b" font-family="Arial, sans-serif" font-size="12">标签：图形识别、基础几何、视觉认知</text>
  
  <rect x="950" y="550" width="200" height="60" rx="6" fill="#f0fdf4" stroke="#22c55e" stroke-width="1"/>
  <text x="970" y="570" fill="#22c55e" font-family="Arial, sans-serif" font-size="12" font-weight="bold">掌握良好</text>
  <text x="970" y="585" fill="#16a34a" font-family="Arial, sans-serif" font-size="10">该学生在图形识别方面</text>
  <text x="970" y="595" fill="#16a34a" font-family="Arial, sans-serif" font-size="10">表现优秀</text>
  
  <!-- Stats Panel -->
  <rect x="300" y="640" width="860" height="100" rx="8" fill="#f8fafc" stroke="#e2e8f0" stroke-width="1"/>
  <text x="320" y="665" fill="#1e293b" font-family="Arial, sans-serif" font-size="16" font-weight="bold">今日学习统计</text>
  
  <div>
    <circle cx="380" cy="700" r="25" fill="#3b82f6" stroke="#1e40af" stroke-width="3"/>
    <text x="370" y="705" fill="white" font-family="Arial, sans-serif" font-size="12" font-weight="bold">25</text>
    <text x="355" y="725" fill="#64748b" font-family="Arial, sans-serif" font-size="10">已完成题目</text>
  </div>
  
  <div>
    <circle cx="500" cy="700" r="25" fill="#10b981" stroke="#059669" stroke-width="3"/>
    <text x="490" y="705" fill="white" font-family="Arial, sans-serif" font-size="12" font-weight="bold">92</text>
    <text x="485" y="725" fill="#64748b" font-family="Arial, sans-serif" font-size="10">正确率%</text>
  </div>
  
  <div>
    <circle cx="620" cy="700" r="25" fill="#f59e0b" stroke="#d97706" stroke-width="3"/>
    <text x="610" y="705" fill="white" font-family="Arial, sans-serif" font-size="12" font-weight="bold">45</text>
    <text x="600" y="725" fill="#64748b" font-family="Arial, sans-serif" font-size="10">学习时长(分)</text>
  </div>
  
  <div>
    <circle cx="740" cy="700" r="25" fill="#8b5cf6" stroke="#7c3aed" stroke-width="3"/>
    <text x="735" y="705" fill="white" font-family="Arial, sans-serif" font-size="12" font-weight="bold">8</text>
    <text x="725" y="725" fill="#64748b" font-family="Arial, sans-serif" font-size="10">知识点掌握</text>
  </div>
</svg>